<?xml version="1.0" encoding="utf-8"?>
<!-- Generator: Adobe Illustrator 15.0.2, SVG Export Plug-In . SVG Version: 6.00 Build 0)  -->
<!DOCTYPE svg PUBLIC "-//W3C//DTD SVG 1.1//EN" "http://www.w3.org/Graphics/SVG/1.1/DTD/svg11.dtd">
<svg version="1.1" id="Layer_1" xmlns="http://www.w3.org/2000/svg" xmlns:xlink="http://www.w3.org/1999/xlink" x="0px" y="0px"
	 width="698.635px" height="51.84px" viewBox="0 0 698.635 51.84" enable-background="new 0 0 698.635 51.84" xml:space="preserve">
<g>
	<path d="M28.26,0.48V43.2h-7.44V24.36H7.62V43.2H0V0.48h7.62v16.86h13.2V0.48H28.26z"/>
	<path d="M116.16,41.7l-13.2,3.9l-8.88-23.04l-13.02,21H72.9L91.08,13.5l-2.04-5.94h-7.08V0.48h12.12L108,36.72l6.12-2.04
		L116.16,41.7z"/>
	<path d="M170.7,36.24h21.119v6.9h-28.62V0.54h6.9h0.601V36.24z"/>
	<path d="M263.639,0.54h0.6v7.02h-15.36v9.96h12.421v6.9h-12.421V43.2h-7.619V0.54H263.639z"/>
	<path d="M308.579,17.46h20.04v7.26h-20.04V17.46z"/>
	<path d="M368.819,36.24h21.119v6.9h-28.619V0.54h6.899h0.601V36.24z"/>
	<path d="M448.378,0.54h6.779h0.66v42.72h-7.439V0.54z"/>
	<path d="M539.757,0.54h0.6v7.02h-15.36v9.96h12.421v6.9h-12.421V43.2h-7.619V0.54H539.757z"/>
	<path d="M616.257,36.3v6.9h-26.88V0.54h25.5h0.6V7.5h-18.6v9.9h16.14v7.02h-16.14V36.3H616.257z M624.717,0.54
		c-0.321,0.201-0.591,0.42-0.811,0.66s-0.41,0.48-0.569,0.72c-0.321,0.6-0.48,1.22-0.48,1.86c0,0.64,0.12,1.26,0.36,1.86
		c0.199,0.321,0.42,0.6,0.66,0.84c0.239,0.24,0.519,0.4,0.84,0.48c0.479,0.36,1.06,0.54,1.739,0.54c0.36,0,0.67-0.039,0.931-0.12
		c0.26-0.08,0.549-0.22,0.87-0.42c0.319-0.08,0.6-0.24,0.84-0.48c0.24-0.24,0.42-0.519,0.54-0.84c0.199-0.32,0.33-0.63,0.39-0.93
		c0.061-0.3,0.09-0.609,0.09-0.93c0-0.64-0.16-1.26-0.479-1.86c-0.24-0.48-0.7-0.939-1.38-1.38c-0.321-0.12-0.621-0.219-0.9-0.3
		c-0.28-0.08-0.58-0.12-0.9-0.12C625.857,0.12,625.277,0.261,624.717,0.54z M627.207,0.81c0.301,0.06,0.57,0.19,0.811,0.39
		c0.52,0.24,0.9,0.6,1.14,1.08c0.24,0.48,0.36,0.98,0.36,1.5c0,0.561-0.12,1.101-0.36,1.62c-0.239,0.48-0.62,0.84-1.14,1.08
		c-0.4,0.24-0.921,0.36-1.561,0.36c-0.239,0-0.49-0.02-0.75-0.06c-0.26-0.04-0.51-0.14-0.75-0.3c-0.561-0.24-0.92-0.6-1.079-1.08
		c-0.36-0.48-0.54-1.02-0.54-1.62c0-0.24,0.039-0.489,0.119-0.75c0.08-0.26,0.22-0.51,0.421-0.75c0.159-0.48,0.519-0.84,1.079-1.08
		c0.44-0.32,0.939-0.48,1.5-0.48C626.657,0.72,626.907,0.75,627.207,0.81z M625.437,5.88V4.14h0.36c0.359,0,0.579,0.06,0.659,0.18
		c0.04,0.04,0.12,0.141,0.24,0.3c0.12,0.16,0.24,0.381,0.36,0.66l0.36,0.6h0.72l-0.48-0.84c-0.16-0.399-0.32-0.639-0.479-0.72
		c-0.081-0.08-0.15-0.129-0.21-0.15c-0.061-0.02-0.111-0.07-0.15-0.15c0.319,0,0.601-0.12,0.84-0.36
		c0.159-0.159,0.24-0.399,0.24-0.72c0-0.08-0.021-0.17-0.06-0.27c-0.041-0.1-0.061-0.189-0.061-0.27c-0.08-0.08-0.16-0.16-0.24-0.24
		c-0.08-0.08-0.16-0.159-0.239-0.24h-1.141h-1.319v3.96H625.437z M625.437,2.4h0.72h0.721c0.159,0.16,0.259,0.24,0.3,0.24
		c0,0.081,0.02,0.15,0.06,0.21s0.061,0.111,0.061,0.15c0,0.12-0.081,0.261-0.24,0.42c-0.081,0.081-0.171,0.141-0.271,0.18
		c-0.1,0.041-0.25,0.06-0.449,0.06h-0.9V2.4z"/>
	<path d="M671.396,43.2v-3.84l16.86-21.42c1.599-2.04,2.399-4.14,2.399-6.3c0-2.319-0.66-4.179-1.979-5.58
		c-1.32-1.399-3.141-2.1-5.46-2.1c-2.361,0-4.191,0.69-5.49,2.07c-1.301,1.38-1.95,3.27-1.95,5.67h-4.32
		c0-3.48,1.09-6.279,3.271-8.4c2.18-2.12,5.01-3.18,8.49-3.18c3.519,0,6.359,1.041,8.52,3.12c2.16,2.08,3.24,4.88,3.24,8.4
		c0,2.841-1.141,5.721-3.42,8.64l-14.94,19.08h18.36v3.84H671.396z"/>
</g>
</svg>
